<svg width="32px" height="32px" viewBox="0 0 32 32" version="1.1" xmlns="http://www.w3.org/2000/svg" xmlns:xlink="http://www.w3.org/1999/xlink"> <g id="favicon-32x32" stroke="none" stroke-width="1" fill="none" fill-rule="evenodd"> <path d="M5.58458798,11.2 C5.44377852,11.2 5.30078598,11.1808226 5.15848805,11.1407609 C4.31621133,10.9030014 3.82382478,10.0192348 4.05850721,9.16669416 C4.09274206,9.04279413 4.12886232,8.91939613 4.16676874,8.797203 C5.79505793,3.53536773 10.5519169,0 16.0034954,0 C21.4483261,0 26.2033989,3.52964464 27.8358558,8.78294546 C27.8717776,8.89841145 27.9065086,9.01578513 27.9394535,9.13376125 C28.1782044,9.98529781 27.6895886,10.8713738 26.848205,11.1127479 C26.0076152,11.3543228 25.131699,10.8596263 24.8931466,10.0080898 C24.8683387,9.92003442 24.8428362,9.83268189 24.8158453,9.74583139 C23.5997636,5.83314089 20.0585894,3.20513501 16.0034954,3.20513501 C11.9434398,3.20513501 8.40087632,5.83735791 7.18836699,9.75526948 C7.16058218,9.84533295 7.13388892,9.93609926 7.10878336,10.0273676 C6.91359505,10.7359271 6.27732287,11.2 5.58458798,11.2" id="Fill-1" fill="#F38B00"></path> <path d="M27.3337042,15.6 L25.1552325,15.6 C24.846619,15.6 24.5784778,15.8098977 24.5078773,16.1068985 L21.5795139,28.0738354 C21.5392425,28.0743298 18.3527806,16.1164887 18.3527806,16.1164887 C18.2717357,15.8121717 17.9925475,15.6 17.6732887,15.6 L14.2987262,15.6 C13.9957367,15.6 13.7308091,15.8012961 13.6537813,16.0900909 L10.4441207,28.1250493 C10.3254155,28.0494149 7.49175516,16.1068985 7.49175516,16.1068985 C7.42105425,15.8098977 7.15301345,15.6 6.84439996,15.6 L4.66753503,15.6 C4.23067572,15.6 3.91161778,16.0069425 4.02198753,16.4234752 L8.01608676,31.5090193 C8.0920099,31.7961333 8.35322164,31.9974294 8.65339922,32 L11.947921,31.9948588 C12.2502076,31.9943645 12.5138296,31.7957378 12.5912591,31.507734 C13.1542553,29.417062 15.9298685,18.8437746 15.9298685,18.8437746 C15.9298685,18.8437746 18.8453772,29.4167654 19.4082729,31.507734 C19.4858029,31.7957378 19.7494249,31.9943645 20.051611,31.9948588 L23.3462332,32 C23.6464108,31.9974294 23.9076225,31.7961333 23.9836461,31.5090193 L27.9780466,16.4218933 C28.0882155,16.0060527 27.7698606,15.6 27.3337042,15.6" id="Fill-4" fill="#FFFFFF"></path> </g> </svg>
