<?xml version="1.0" encoding="UTF-8"?>
<svg width="563px" height="126px" viewBox="0 0 563 126" version="1.1" xmlns="http://www.w3.org/2000/svg" xmlns:xlink="http://www.w3.org/1999/xlink">
    <!-- Generator: Sketch 49.1 (51147) - http://www.bohemiancoding.com/sketch -->
    <title>guides</title>
    <desc>Created with Sketch.</desc>
    <defs></defs>
    <g id="UI-Handoff" stroke="none" stroke-width="1" fill="none" fill-rule="evenodd">
        <g id="Guidelines-&gt;-Icons" transform="translate(-450.000000, -537.000000)">
            <g id="guides" transform="translate(450.000000, 537.000000)">
                <g id="Group-5">
                    <rect id="clearance---do-not-draw-here" stroke-opacity="0.294129303" stroke="#7F7F7F" stroke-width="2" x="1" y="1" width="22" height="22"></rect>
                    <circle id="circle---use-for-non-rectangular-icons" stroke="#98C146" stroke-width="0.5" cx="12" cy="12" r="9.75"></circle>
                    <rect id="tall---use-for-tall-icons" stroke="#9013FE" stroke-width="0.5" x="4.25" y="2.25" width="15.5" height="19.5"></rect>
                    <rect id="wide---use-for-wide-icons" stroke="#F5A623" stroke-width="0.5" x="2.25" y="4.25" width="19.5" height="15.5"></rect>
                    <rect id="square---use-for-square-icons" stroke="#24C2F2" stroke-width="0.5" x="3.25" y="3.25" width="17.5" height="17.5"></rect>
                    <path d="M72,3.50020972 C72,3.22395152 72.2275865,3 72.5002097,3 L89.4997903,3 C89.7760485,3 90,3.22758651 90,3.50020972 L90,20.4997903 C90,20.7760485 89.7724135,21 89.4997903,21 L72.5002097,21 C72.2239515,21 72,20.7724135 72,20.4997903 L72,3.50020972 Z M74,5 L74,19 L88,19 L88,5 L74,5 Z" id="wd-icon-fill" fill="#000000"></path>
                    <path d="M76.1953534,13.6748133 L80.5950323,16.9902092 L86.3064678,9.41087828 C86.4761777,9.18566568 86.4327269,8.86787101 86.2101236,8.7001274 L85.4189704,8.10395072 C85.1868475,7.92903353 84.8785907,7.98245497 84.7091968,8.20724823 L80.2013913,14.1893081 L77.3989835,12.0775423 C77.1888427,11.9191899 76.8708662,11.9625036 76.7031226,12.1851069 L76.1069459,12.9762601 C75.9320288,13.2083831 75.9787837,13.5116163 76.1953534,13.6748133 Z" id="wd-icon-accent" fill="#000000"></path>
                    <path d="M202,65 C202,65 206,59 212,59 C218,59 222,65 222,65 C222,65 218,71 212,71 C206,71 202,65 202,65 Z M204.5,65 C204.5,65 208,69 212,69 C216,69 219.5,65 219.5,65 C219.5,65 216,61 212,61 C208,61 204.5,65 204.5,65 Z" id="wd-icon-fill" fill="#000000"></path>
                    <path d="M209.5,65 C209.5,66.380625 210.619375,67.5 212,67.5 C213.380625,67.5 214.5,66.380625 214.5,65 C214.5,63.619375 213.380625,62.5 212,62.5 C210.619375,62.5 209.5,63.619375 209.5,65 L209.5,65 Z" id="wd-icon-accent" fill="#000000"></path>
                    <path d="M140,18 L156,18 L156,6 L140,6 L140,18 Z M138,4.4963932 C138,4.22224281 138.224609,4 138.494385,4 L157.505615,4 C157.778656,4 158,4.22618103 158,4.4963932 L158,19.5036068 C158,19.7777572 157.775391,20 157.505615,20 L138.494385,20 C138.221344,20 138,19.773819 138,19.5036068 L138,4.4963932 Z" id="wd-icon-fill" fill="#000000" fill-rule="nonzero"></path>
                    <path d="M139.929885,18 L144.032432,11.6995313 C144.637269,10.7706552 145.612918,10.7629985 146.222741,11.6995313 L150.325287,18 L139.929885,18 Z M150.5,11 C149.671573,11 149,10.3284271 149,9.5 C149,8.67157288 149.671573,8 150.5,8 C151.328427,8 152,8.67157288 152,9.5 C152,10.3284271 151.328427,11 150.5,11 Z M150,15.2802368 L151.025884,13.6995313 C151.628729,12.7706552 152.601164,12.7629985 153.208978,13.6995313 L156,18 L151.719286,18 L150,15.2802368 Z" id="wd-icon-accent" fill="#000000"></path>
                    <path d="M555.72274,10.1894738 L549.48305,16.429638 L549.536617,17.4632661 L550.570166,17.5168369 L556.809856,11.2766727 L555.72274,10.1894738 L555.72274,10.1894738 Z M556.809856,9.10227485 L557.896972,10.1894738 L558.984088,9.10227485 L557.896972,8.0150759 L556.809856,9.10227485 Z M548.012577,16.1016343 C548.013621,15.8930363 548.135987,15.6024056 548.281554,15.4568277 L557.625541,6.11212975 C557.775448,5.9622111 558.020838,5.96455372 558.163862,6.10758817 L560.891431,8.83536469 C561.03883,8.9827751 561.035004,9.22560107 560.88689,9.37372659 L551.542903,18.7184246 C551.395395,18.8659434 551.103755,18.9863926 550.898145,18.987422 L548.386932,18.9999951 C548.172163,19.0010704 547.99894,18.8257021 548.000005,18.613039 L548.012577,16.1016343 Z M541,10.5046844 C541,10.2259549 541.230797,10 541.500436,10 L548.499564,10 C548.775947,10 549,10.214035 549,10.5046844 L549,11.4953156 C549,11.7740451 548.769203,12 548.499564,12 L541.500436,12 C541.224053,12 541,11.785965 541,11.4953156 L541,10.5046844 Z M541,6.50468445 C541,6.22595492 541.229001,6 541.500347,6 L552.499653,6 C552.775987,6 553,6.21403503 553,6.50468445 L553,7.49531555 C553,7.77404508 552.770999,8 552.499653,8 L541.500347,8 C541.224013,8 541,7.78596497 541,7.49531555 L541,6.50468445 Z M541,14.5046844 C541,14.2259549 541.214844,14 541.497699,14 L545.502301,14 C545.777173,14 546,14.214035 546,14.5046844 L546,15.4953156 C546,15.7740451 545.785156,16 545.502301,16 L541.497699,16 C541.222827,16 541,15.785965 541,15.4953156 L541,14.5046844 Z" id="wd-icon-fill" fill="#000000" fill-rule="nonzero"></path>
                    <path d="M484.131504,5.25419879 C484.131504,4.08447929 485.373149,3.58539432 486.189817,4.40206187 L492.569575,10.7818206 C493.153941,11.366186 493.150224,12.3177974 492.569575,12.898446 L486.189817,19.2782047 C485.355251,20.1127708 484.131504,19.5755237 484.131504,18.4136619 L484.131504,15.797146 C479.905858,15.9963291 476.972408,17.4964671 474.816112,20.5152807 C474.189817,21.3920948 472.810479,20.7945216 473.021798,19.7379264 C474.26062,13.543817 477.906975,9.17020462 484.131504,7.95945272 L484.131504,5.25419879 Z M486.131504,9.72131713 C486.131504,9.72131713 485.765574,9.72448842 485.272925,9.79486681 C480.891074,10.4208456 477.924731,12.7251124 476.238093,16.2565444 C478.589772,14.5756257 481.51115,13.7741754 485.131504,13.7741754 C485.683789,13.7741754 486.131504,13.7741754 486.131504,13.7741754 L486.131504,16.5080903 L490.799461,11.8401333 L486.131504,7.17217628 L486.131504,9.72131713 Z" id="wd-icon-fill" fill="#000000" fill-rule="nonzero"></path>
                    <path d="M484.424867,58.5630281 C484.232996,58.371157 484.230842,58.0494549 484.427934,57.8523633 L485.128416,57.1518814 C485.333936,56.9463612 485.643683,56.9534168 485.83908,57.1488145 L493.616764,64.926498 C493.712202,65.0219359 493.760701,65.1494958 493.761089,65.2778647 C493.764573,65.4113631 493.713978,65.5368817 493.616764,65.6340959 L485.83908,73.4117793 C485.647209,73.6036505 485.325507,73.6058041 485.128416,73.4087125 L484.427934,72.7082305 C484.222413,72.5027104 484.229469,72.1929636 484.424867,71.9975658 L490.127417,66.2950156 L478.50021,66.2950156 C478.227587,66.2950156 478,66.0690606 478,65.7903311 L478,64.7997 C478,64.5090506 478.223952,64.2950156 478.50021,64.2950156 L490.156854,64.2950156 L484.424867,58.5630281 Z" id="wd-icon-fill" fill="#000000"></path>
                    <path d="M216.679377,5.3209907 L210.679377,9.8209907 L210.679377,18.8209907 L213.679377,18.8209907 L213.679377,14.3186895 C213.679377,14.043818 213.907258,13.8209907 214.170382,13.8209907 L219.188372,13.8209907 C219.459547,13.8209907 219.679377,14.0358345 219.679377,14.3186895 L219.679377,18.8209907 L222.679377,18.8209907 L222.679377,9.8209907 L216.679377,5.3209907 Z M224.679377,11.2711395 L224.679377,20.3206434 C224.679377,20.5919901 224.453987,20.8209907 224.175954,20.8209907 L218.1828,20.8209907 C217.91228,20.8209907 217.679377,20.5981634 217.679377,20.3232919 L217.679377,15.8209907 L215.679377,15.8209907 L215.679377,20.3232919 C215.679377,20.606147 215.453987,20.8209907 215.175954,20.8209907 L209.1828,20.8209907 C208.91228,20.8209907 208.679377,20.5969776 208.679377,20.3206434 L208.679377,11.2447652 L208.398721,11.4524399 C208.172451,11.619871 207.86171,11.5835472 207.688825,11.3499067 L207.099575,10.5535811 C206.93378,10.3295224 206.978214,10.0155549 207.209075,9.84472615 L213.62439,5.09764279 C213.654392,5.0754425 213.685879,5.05682443 213.718333,5.04177359 L216.271658,3.12678041 C216.497255,2.95758238 216.861919,2.95789742 217.087097,3.12678041 L220.908418,5.99277167 L226.114036,9.84472615 C226.340306,10.0121573 226.396422,10.3199405 226.223537,10.5535811 L225.634287,11.3499067 C225.468492,11.5739653 225.155252,11.6232686 224.924391,11.4524399 L224.679377,11.2711395 L224.679377,11.2711395 Z" id="wd-icon-fill" fill="#000000" fill-rule="nonzero"></path>
                    <path d="M351.046399,62.4496104 L342.929278,70.5667309 L342.998962,71.9112602 L344.343492,71.9809444 L352.460612,63.8638239 L351.046399,62.4496104 L351.046399,62.4496104 Z M352.460612,61.0353968 L353.874826,62.4496104 L355.289039,61.0353968 L353.874826,59.6211833 L352.460612,61.0353968 Z M341.016361,70.1400681 C341.01772,69.8687267 341.176904,69.4906782 341.366269,69.3013125 L353.521725,57.1458569 C353.716737,56.9508447 354.035962,56.953892 354.222019,57.1399492 L357.770273,60.6882037 C357.962023,60.8799532 357.957045,61.1958179 357.764366,61.3884975 L345.60891,73.5439532 C345.41702,73.7358438 345.037629,73.8925224 344.770155,73.8938615 L341.503354,73.9102163 C341.223964,73.9116151 340.998621,73.6834984 341.000006,73.4068692 L341.016361,70.1400681 Z" id="wd-icon-fill" fill="#000000" fill-rule="nonzero"></path>
                    <path d="M550,57.4904432 C550,57.2195789 550.22788,57 550.491005,57 L555.508995,57 C555.780169,57 556,57.2149428 556,57.4904432 L556,73.5095568 C556,73.7804211 555.77212,74 555.508995,74 L550.491005,74 C550.219831,74 550,73.7850572 550,73.5095568 L550,57.4904432 Z M552,59 L552,72 L554,72 L554,59 L552,59 Z M543,61.493741 C543,61.2210554 543.22788,61 543.491005,61 L548.508995,61 C548.780169,61 549,61.2256393 549,61.493741 L549,73.506259 C549,73.7789446 548.77212,74 548.508995,74 L543.491005,74 C543.219831,74 543,73.7743607 543,73.506259 L543,61.493741 Z M545,72 L547,72 L547,63 L545,63 L545,72 Z M557,65.5096658 C557,65.2281852 557.22788,65 557.491005,65 L562.508995,65 C562.780169,65 563,65.2224731 563,65.5096658 L563,73.4903342 C563,73.7718148 562.77212,74 562.508995,74 L557.491005,74 C557.219831,74 557,73.7775269 557,73.4903342 L557,65.5096658 Z M559,67 L559,72 L561,72 L561,67 L559,67 Z" id="wd-icon-fill" fill="#000000" fill-rule="nonzero"></path>
                    <path d="M487,114.504684 C487,114.225955 487.215057,114 487.490479,114 L490.509521,114 C490.780405,114 491,114.229001 491,114.500347 L491,125.499653 C491,125.775987 490.773819,126 490.503607,126 L475.496393,126 C475.222243,126 475,125.770999 475,125.499653 L475,114.500347 C475,114.224013 475.215057,114 475.490479,114 L478.509521,114 C478.780405,114 479,114.214035 479,114.504684 L479,115.495316 C479,115.774045 478.785965,116 478.495316,116 L477,116 L477,124 L489,124 L489,116 L487.504684,116 C487.225955,116 487,115.785965 487,115.495316 L487,114.504684 Z M484,109.828679 L484,118.498769 C484,118.775591 483.785965,119 483.495316,119 L482.504684,119 C482.225955,119 482,118.770249 482,118.498769 L482,109.828175 L479.820187,112.007987 C479.623589,112.204586 479.312868,112.212615 479.107348,112.007095 L478.406866,111.306613 C478.209774,111.109522 478.214687,110.785061 478.405974,110.593774 L482.999748,106 L487.593521,110.593774 C487.79012,110.790373 487.79815,111.101093 487.592629,111.306613 L486.892147,112.007095 C486.695056,112.204187 486.370595,112.199274 486.179308,112.007987 L484,109.828679 Z" id="wd-icon-fill" fill="#000000"></path>
                    <path d="M415.302479,58.4876072 L415.80459,55.9770496 C415.912512,55.43744 416.443353,55 417.009369,55 L418.990631,55 C419.54809,55 420.085938,55.4296875 420.19541,55.9770496 L420.697521,58.4876072 L422.8278,57.0674214 C423.285674,56.7621721 423.970352,56.8282167 424.370586,57.2284502 L425.77155,58.6294142 C426.165733,59.0235972 426.242213,59.7077477 425.932579,60.1721998 L424.512393,62.3024786 L427.02295,62.8045901 C427.56256,62.912512 428,63.4433532 428,64.0093689 L428,65.9906311 C428,66.5480902 427.570312,67.0859375 427.02295,67.1954099 L424.512393,67.6975214 L425.932579,69.8278002 C426.237828,70.2856741 426.171783,70.9703523 425.77155,71.3705858 L424.370586,72.7715498 C423.976403,73.1657329 423.292252,73.2422134 422.8278,72.9325786 L420.697521,71.5123928 L420.19541,74.0229504 C420.087488,74.56256 419.556647,75 418.990631,75 L417.009369,75 C416.45191,75 415.914062,74.5703125 415.80459,74.0229504 L415.302479,71.5123928 L413.1722,72.9325786 C412.714326,73.2378279 412.029648,73.1717833 411.629414,72.7715498 L410.22845,71.3705858 C409.834267,70.9764028 409.757787,70.2922523 410.067421,69.8278002 L411.487607,67.6975214 L408.97705,67.1954099 C408.43744,67.087488 408,66.5566468 408,65.9906311 L408,64.0093689 C408,63.4519098 408.429688,62.9140625 408.97705,62.8045901 L411.487607,62.3024786 L410.067421,60.1721998 C409.762172,59.7143259 409.828217,59.0296477 410.22845,58.6294142 L411.629414,57.2284502 C412.023597,56.8342671 412.707748,56.7577866 413.1722,57.0674214 L415.302479,58.4876072 Z M411.444912,59.5342726 L412.735683,61.4704283 C413.327924,62.3587899 412.828726,63.5639607 411.781781,63.7733496 L409.5,64.2297059 L409.5,65.7702941 L411.781781,66.2266504 C412.828726,66.4360393 413.327924,67.6412101 412.735683,68.5295717 L411.444912,70.4657274 L412.534273,71.5550879 L414.470428,70.2643174 C415.35879,69.6720763 416.563961,70.1712744 416.77335,71.2182186 L417.229706,73.5 L418.770294,73.5 L419.22665,71.2182186 C419.436039,70.1712744 420.64121,69.6720763 421.529572,70.2643174 L423.465727,71.5550879 L424.555088,70.4657274 L423.264317,68.5295717 C422.672076,67.6412101 423.171274,66.4360393 424.218219,66.2266504 L426.5,65.7702941 L426.5,64.2297059 L424.218219,63.7733496 C423.171274,63.5639607 422.672076,62.3587899 423.264317,61.4704283 L424.555088,59.5342726 L423.465727,58.4449121 L421.529572,59.7356826 C420.64121,60.3279237 419.436039,59.8287256 419.22665,58.7817814 L418.770294,56.5 L417.229706,56.5 L416.77335,58.7817814 C416.563961,59.8287256 415.35879,60.3279237 414.470428,59.7356826 L412.534273,58.4449121 L411.444912,59.5342726 Z M418,69 C415.790861,69 414,67.209139 414,65 C414,62.790861 415.790861,61 418,61 C420.209139,61 422,62.790861 422,65 C422,67.209139 420.209139,69 418,69 Z M418,67.5 C419.380712,67.5 420.5,66.3807119 420.5,65 C420.5,63.6192881 419.380712,62.5 418,62.5 C416.619288,62.5 415.5,63.6192881 415.5,65 C415.5,66.3807119 416.619288,67.5 418,67.5 Z" id="wd-icon-fill" fill="#181818" fill-rule="nonzero"></path>
                    <path d="M267,116 C267,110.477153 271.475938,106 277,106 C282.522847,106 287,110.475938 287,116 C287,121.522847 282.524062,126 277,126 C271.477153,126 267,121.524062 267,116 Z M269,116 C269,120.418991 272.58131,124 277,124 C281.418991,124 285,120.41869 285,116 C285,111.581009 281.41869,108 277,108 C272.581009,108 269,111.58131 269,116 Z" id="wd-icon-fill" fill="#000000"></path>
                    <path d="M277.495316,114 C277.774045,114 278,114.232903 278,114.503423 L278,120.496577 C278,120.77461 277.785965,121 277.495316,121 L276.504684,121 C276.225955,121 276,120.767097 276,120.496577 L276,114.503423 C276,114.22539 276.214035,114 276.504684,114 L277.495316,114 Z M277.495316,113 L276.504684,113 C276.214035,113 276,112.774045 276,112.495316 L276,111.504684 C276,111.214035 276.225955,111 276.504684,111 L277.495316,111 C277.785965,111 278,111.225955 278,111.504684 L278,112.495316 C278,112.785965 277.774045,113 277.495316,113 Z" id="wd-icon-accent" fill="#000000"></path>
                    <path d="M19,73.4911686 C19,73.769832 18.773819,73.9957334 18.5036068,73.9957334 L3.4963932,73.9957334 C3.22224281,73.9957334 3,73.7817491 3,73.4911686 L3,71.9962075 C3,69 5.24556271,66.7989383 7.75640173,65.6834948 C6.68154177,64.6749352 6,63.1743454 6,61.4986963 C6,58.4618502 8.23857625,56 11,56 C13.7614237,56 16,58.4618502 16,61.4986963 C16,63.1735906 15.3190722,64.6735831 14.2450507,65.6821314 C16.7581808,66.7967651 19,68.9950163 19,71.9962075 L19,73.4911686 Z M5.08324272,71.9962075 L17,71.9962075 C17,69 14.5,66.9973926 11,66.9973926 C7.5,66.9973926 5,69 5.08324272,71.9962075 Z M11,64.9978667 C12.6568542,64.9978667 14,63.4312348 14,61.4986963 C14,59.5661579 12.6568542,57.9995259 11,57.9995259 C9.34314575,57.9995259 8,59.5661579 8,61.4986963 C8,63.4312348 9.34314575,64.9978667 11,64.9978667 Z" id="wd-icon-fill" fill="#000000"></path>
                    <path d="M553.990719,111.610606 C554.418424,112.074028 555.093748,112.074028 555.521453,111.610606 L556.53444,110.614251 C556.646994,110.498396 556.849591,110.544738 556.894613,110.706935 C557.164742,111.703291 556.917123,112.838673 556.151756,113.626489 C555.341367,114.483818 554.148294,114.715528 553.112797,114.32162 C553.022754,114.298449 552.955221,114.298449 552.887689,114.367962 L546.674707,120.763175 C546.607174,120.832688 546.607174,120.925372 546.629685,120.994885 C546.989858,122.037583 546.787261,123.265649 545.954361,124.122978 C545.188993,124.933965 544.085964,125.165676 543.117999,124.887623 C542.960424,124.841281 542.915402,124.632742 543.027956,124.516886 L544.018431,123.49736 C544.446137,123.05711 544.446137,122.338807 544.018431,121.898557 C543.590726,121.458307 542.892891,121.458307 542.465186,121.898557 L541.47471,122.918083 C541.362156,123.033939 541.159559,122.987596 541.114537,122.825399 C540.844408,121.805872 541.069516,120.693662 541.857394,119.882675 C542.667783,119.025345 543.860856,118.793635 544.896353,119.187543 C544.986396,119.210714 545.053928,119.210714 545.121461,119.141201 L551.311933,112.769159 C551.379465,112.699646 551.379465,112.606962 551.356954,112.537449 C550.996781,111.494751 551.199379,110.266685 552.032278,109.409356 C552.797646,108.62154 553.900675,108.366658 554.86864,108.644711 C555.026216,108.691053 555.093748,108.876421 554.981194,108.992277 L553.990719,110.011803 C553.563013,110.452053 553.563013,111.170356 553.990719,111.610606 Z M543.016539,107.260448 C543.261581,107.015405 543.663037,107.01957 543.907373,107.263906 L548.711511,112.068044 C548.958463,112.314996 548.960055,112.713793 548.714969,112.958878 L546.840813,114.833034 C546.595771,115.078076 546.194315,115.073912 545.949979,114.829575 L541.145841,110.025438 C540.898889,109.778485 540.897298,109.379689 541.142383,109.134603 L543.016539,107.260448 Z M557.220023,122.237252 L557.944148,123.40253 C558.034663,123.542364 558.012035,123.752114 557.89889,123.868641 L557.401055,124.381364 C557.28791,124.497891 557.08425,124.521197 556.948477,124.427975 L555.839661,123.658891 C555.794404,123.61228 555.749146,123.565669 555.726517,123.519058 L555.296568,122.656752 C555.273939,122.633447 555.25131,122.586836 555.228681,122.56353 L551.155482,118.368529 C551.042337,118.252001 551.042337,118.042251 551.155482,117.925724 L551.653317,117.413001 C551.766462,117.296474 551.970122,117.296474 552.083266,117.413001 L556.156466,121.608002 C556.179095,121.631308 556.224352,121.654613 556.246981,121.677919 L557.08425,122.120724 C557.129508,122.14403 557.174766,122.190641 557.220023,122.237252 Z" id="wd-icon-fill" fill="#000000"></path>
                    <path d="M340,2.49438477 C340,2.2213436 340.226181,2 340.496393,2 L355.503607,2 C355.777757,2 356,2.22460938 356,2.49438477 L356,21.5056152 C356,21.7786564 355.773819,22 355.503607,22 L340.496393,22 C340.222243,22 340,21.7753906 340,21.5056152 L340,2.49438477 Z M354,4 L342,4 L342,20 L354,20 L354,4 Z" id="wd-icon-fill" fill="#000000"></path>
                    <path d="M343,8.50468445 C343,8.22595492 343.22788,8 343.491005,8 L348.508995,8 C348.780169,8 349,8.21403503 349,8.50468445 L349,9.49531555 C349,9.77404508 348.77212,10 348.508995,10 L343.491005,10 C343.219831,10 343,9.78596497 343,9.49531555 L343,8.50468445 Z M343,11.5046844 C343,11.2259549 343.227653,11 343.50965,11 L352.49035,11 C352.771822,11 353,11.214035 353,11.5046844 L353,12.4953156 C353,12.7740451 352.772347,13 352.49035,13 L343.50965,13 C343.228178,13 343,12.785965 343,12.4953156 L343,11.5046844 Z M343,14.5046844 C343,14.2259549 343.227653,14 343.50965,14 L352.49035,14 C352.771822,14 353,14.214035 353,14.5046844 L353,15.4953156 C353,15.7740451 352.772347,16 352.49035,16 L343.50965,16 C343.228178,16 343,15.785965 343,15.4953156 L343,14.5046844 Z" id="wd-icon-accent" fill="#000000" opacity="0.900000036"></path>
                    <path d="M86,67 L88.4995642,67 C88.7759472,67 89,67.2307968 89,67.5004358 L89,74.4995642 C89,74.7759472 88.7692032,75 88.4995642,75 L81.5004358,75 C81.2240528,75 81,74.7692032 81,74.4995642 L81,67.5004358 C81,67.2240528 81.2307968,67 81.5004358,67 L84,67 L84,66 L74,66 L74,67 L76.4995642,67 C76.7759472,67 77,67.2307968 77,67.5004358 L77,74.4995642 C77,74.7759472 76.7692032,75 76.4995642,75 L69.5004358,75 C69.2240528,75 69,74.7692032 69,74.4995642 L69,67.5004358 C69,67.2240528 69.2307968,67 69.5004358,67 L72,67 L72,64.5046844 C72,64.2259549 72.2199066,64 72.4982674,64 L78,64 L78,63 L75.5004358,63 C75.2240528,63 75,62.7692032 75,62.4995642 L75,55.5004358 C75,55.2240528 75.2307968,55 75.5004358,55 L82.4995642,55 C82.7759472,55 83,55.2307968 83,55.5004358 L83,62.4995642 C83,62.7759472 82.7692032,63 82.4995642,63 L80,63 L80,64 L85.5017326,64 C85.7769181,64 86,64.214035 86,64.5046844 L86,67 Z M77,61 L81,61 L81,57 L77,57 L77,61 Z M71,69 L71,73 L75,73 L75,69 L71,69 Z M83,69 L83,73 L87,73 L87,69 L83,69 Z" id="wd-icon-fill" fill="#000000"></path>
                    <path d="M405,5.49907684 C405,5.22344431 405.224609,5 405.494385,5 L424.505615,5 C424.778656,5 425,5.2236826 425,5.49907684 L425,19.5009232 C425,19.7765557 424.775391,20 424.505615,20 L405.494385,20 C405.221344,20 405,19.7763174 405,19.5009232 L405,5.49907684 Z M407,7 L407,18 L423,18 L423,7 L407,7 Z" id="wd-icon-fill" fill="#000000"></path>
                    <path d="M416,13.5046844 C416,13.2259549 416.215057,13 416.490479,13 L419.509521,13 C419.780405,13 420,13.214035 420,13.5046844 L420,14.4953156 C420,14.7740451 419.784943,15 419.509521,15 L416.490479,15 C416.219595,15 416,14.785965 416,14.4953156 L416,13.5046844 Z M416,10.5046844 C416,10.2259549 416.214844,10 416.497699,10 L420.502301,10 C420.777173,10 421,10.214035 421,10.5046844 L421,11.4953156 C421,11.7740451 420.785156,12 420.502301,12 L416.497699,12 C416.222827,12 416,11.785965 416,11.4953156 L416,10.5046844 Z M409,14 C409,13.1715729 409.674322,12.5 410.500165,12.5 L412.499835,12.5 C413.328353,12.5 414,13.1657972 414,14 L414,15.5 L409,15.5 L409,14 Z M410,11 C410,10.1715729 410.665797,9.5 411.5,9.5 C412.328427,9.5 413,10.1657972 413,11 C413,11.8284271 412.334203,12.5 411.5,12.5 C410.671573,12.5 410,11.8342028 410,11 Z" id="wd-icon-accent" fill="#000000"></path>
                    <path d="M205,107 L205,106.497699 C205,106.222827 205.227653,106 205.50965,106 L214.49035,106 C214.771822,106 215,106.214844 215,106.497699 L215,107 L217.503607,107 C217.777757,107 218,107.226615 218,107.508204 L218,125.491796 C218,125.772469 217.773819,126 217.503607,126 L202.496393,126 C202.222243,126 202,125.773385 202,125.491796 L202,107.508204 C202,107.227531 202.226181,107 202.496393,107 L205,107 Z M205,109 L204,109 L204,124 L216,124 L216,109 L215,109 L215,110.502301 C215,110.777173 214.772347,111 214.49035,111 L205.50965,111 C205.228178,111 205,110.785156 205,110.502301 L205,109 Z M207,108 L207,109 L213,109 L213,108 L207,108 Z" id="wd-icon-fill" fill="#000000"></path>
                    <path d="M206,115.491005 C206,115.219831 206.214035,115 206.504684,115 L207.495316,115 C207.774045,115 208,115.22788 208,115.491005 L208,121 L206,121 L206,115.491005 Z M212,117.490479 C212,117.219595 212.214035,117 212.504684,117 L213.495316,117 C213.774045,117 214,117.215057 214,117.490479 L214,121 L212,121 L212,117.490479 Z M209,113.500436 C209,113.224053 209.214035,113 209.504684,113 L210.495316,113 C210.774045,113 211,113.230797 211,113.500436 L211,121 L209,121 L209,113.500436 Z" id="wd-icon-accent" fill="#000000"></path>
                    <path d="M144.875,116 L148.75,116 C148.907379,116 149.055573,116.074097 149.15,116.2 L151.775,119.7 C151.908333,119.877778 151.908333,120.122222 151.775,120.3 L149.15,123.8 C149.055573,123.925903 148.907379,124 148.75,124 L144.875,124 L144.875,125.5 C144.875,125.776142 144.651142,126 144.375,126 L143.375,126 C143.098858,126 142.875,125.776142 142.875,125.5 L142.875,124 L137.5,124 C137.223858,124 137,123.776142 137,123.5 L137,116.5 C137,116.223858 137.223858,116 137.5,116 L142.875,116 L142.875,114 L139.125,114 C138.967621,114 138.819427,113.925903 138.725,113.8 L136.1,110.3 C135.966667,110.122222 135.966667,109.877778 136.1,109.7 L138.725,106.2 C138.819427,106.074097 138.967621,106 139.125,106 L150.375,106 C150.651142,106 150.875,106.223858 150.875,106.5 L150.875,113.5 C150.875,113.776142 150.651142,114 150.375,114 L144.875,114 L144.875,116 Z M138.375,110 L139.875,112 L148.875,112 L148.875,108 L139.875,108 L138.375,110 Z M149.5,120 L148,118 L139,118 L139,122 L148,122 L149.5,120 Z" id="wd-icon-fill" fill="#000000"></path>
                    <path d="M278.183182,17.4821373 C279.817909,19.1607124 281.756848,20 284,20 C288.418278,20 292,16.418278 292,12 C292,7.581722 288.467623,4.06866185 284,4 C279.521826,4.10076189 276.408875,7.44602083 276.060832,11.0488492 L275.597363,10.5791194 C275.403416,10.3825514 275.086841,10.3804273 274.890273,10.5743749 C274.888748,10.5758789 274.887234,10.5773927 274.885729,10.5789162 L274.193353,11.2798456 C274.000012,11.4755742 274.00112,11.7907259 274.195832,11.9850904 L276.75787,14.5422803 C276.953251,14.7373127 277.269723,14.7370944 277.464834,14.5417925 L280.019772,11.9846425 C280.213849,11.7903758 280.214938,11.4759459 280.022211,11.2803397 L279.327018,10.5747681 C279.13321,10.3780651 278.81664,10.3757159 278.619934,10.5695212 L278.07361,11.1077837 C278.316152,9.10310184 280.186982,6.03211434 284,6 C287.313708,6 290,8.6862915 290,12 C290,15.3137085 287.313708,18 284,18 C282.290495,18 280.832809,17.36454 279.626941,16.0936199 L279.626894,16.0936646 C279.436851,15.8933691 279.120419,15.8850581 278.920123,16.0751015 C278.919285,16.0758969 278.918449,16.0766953 278.917616,16.0774966 L278.194729,16.7728847 C277.995705,16.9643618 277.989587,17.2809253 278.181064,17.4799491 C278.181768,17.4806807 278.182474,17.4814101 278.183182,17.4821373 Z" id="wd-icon-fill" fill="#000000" fill-rule="nonzero"></path>
                    <path d="M284,12 L286.502301,12 C286.777173,12 287,12.214035 287,12.5046844 L287,13.4953156 C287,13.7740451 286.785156,14 286.502301,14 L283,14 L282.504684,14 C282.225955,14 282,13.7851562 282,13.5023012 L282,9.49769878 C282,9.22282734 282.214035,9 282.504684,9 L283.495316,9 C283.774045,9 284,9.21484375 284,9.49769878 L284,12 Z" id="wd-icon-accent" fill="#000000"></path>
                    <path d="M405,118.86354 C405,117.298524 405.912051,115.919907 407.257478,115.318716 C407.380885,112.366606 409.736836,110 412.641637,110 C414.201645,110 415.644447,110.689535 416.648599,111.841871 C417.178684,111.547966 417.778219,111.387982 418.402065,111.387982 C420.264059,111.387982 421.794292,112.798877 422.060822,114.626472 C423.765555,115.108835 425,116.717818 425,118.603202 C425,120.998174 423.173438,123.636364 420.995477,123.636364 L408.753866,123.636364 C406.705147,123.636364 405,121.112583 405,118.86354 Z M409.08434,115.893779 L409.150907,116.691433 L408.368101,116.85846 C407.478611,117.048251 406.818182,117.880039 406.818182,118.86354 C406.818182,120.224911 407.894646,121.818182 408.753866,121.818182 L420.995477,121.818182 C421.996524,121.818182 423.181818,120.106205 423.181818,118.603202 C423.181818,117.375043 422.271385,116.373716 421.129069,116.301519 L420.22003,116.244065 L420.279243,115.335139 C420.282254,115.288932 420.283767,115.242422 420.283767,115.19565 C420.283767,114.089341 419.433431,113.206164 418.402065,113.206164 C417.911535,113.206164 417.451073,113.404614 417.101638,113.758051 L416.275198,114.593955 L415.673981,113.583867 C415.02375,112.491432 413.886313,111.818182 412.641637,111.818182 C410.677265,111.818182 409.070578,113.48692 409.070578,115.562268 C409.070578,115.673529 409.075186,115.784094 409.08434,115.893779 Z M416,118.814213 L416,121.82 L414,121.82 L414,118.828427 L412.769187,120.05924 C412.566134,120.262293 412.254439,120.254439 412.057348,120.057348 L411.356866,119.356866 C411.151346,119.151346 411.158927,118.841073 411.354973,118.645027 L415,115 L418.659241,118.645027 C418.862294,118.84808 418.85444,119.159774 418.657348,119.356866 L417.956866,120.057348 C417.751346,120.262868 417.441073,120.255287 417.245027,120.05924 L416,118.814213 Z" id="wd-icon-fill" fill="#000000" fill-rule="nonzero"></path>
                    <path d="M290,70.5146179 L284.591397,66.6513303 L283.012272,67.8795389 C282.425395,68.3359991 281.569689,68.3321752 280.987728,67.8795389 L279.408603,66.6513303 L274,70.5146179 L274,71 L290,71 L290,70.5146179 Z M290,68.0568107 L290,62.4446395 L286.238651,65.370133 L290,68.0568107 Z M274,68.0568107 L277.761349,65.370133 L274,62.4446395 L274,68.0568107 Z M290,59.9109163 L290,59 L274,59 L274,59.9109163 L282,66.1331385 L290,59.9109163 Z M272,57.4963932 C272,57.2222428 272.224609,57 272.494385,57 L291.505615,57 C291.778656,57 292,57.226181 292,57.4963932 L292,72.5036068 C292,72.7777572 291.775391,73 291.505615,73 L272.494385,73 C272.221344,73 272,72.773819 272,72.5036068 L272,57.4963932 Z" id="wd-icon-fill" fill="#000000"></path>
                    <path d="M2.44980167,114 L17.575899,114 L14.9259093,110 L5.11967171,110 L2.44980167,114 Z M18,116 L2,116 L2,122 L18,122 L18,116 Z M3.77164298,108.41706 C3.92538474,108.186724 4.27806313,108 4.54827888,108 L15.5017382,108 C15.7769206,108 16.1240983,108.187319 16.2749362,108.415 L20,114 L20,123.492275 C20,123.772684 19.7753906,124 19.5056152,124 L0.494384766,124 C0.221343599,124 0,123.773889 0,123.493803 L0,114 L3.77164298,108.41706 Z" id="wd-icon-fill" fill="#000000" fill-rule="nonzero"></path>
                    <rect id="wd-icon-accent" fill="#000000" x="6" y="118" width="8" height="2" rx="0.5"></rect>
                    <path d="M140,70 L150,70 L150,67.495389 C150,67.2157526 150.225955,67 150.504684,67 L151.495316,67 C151.785965,67 152,67.2228273 152,67.4976988 L152,71.5023012 C152,71.7851562 151.776918,72 151.501733,72 L138.498267,72 C138.219907,72 138,71.7769181 138,71.5017326 L138,58.4982674 C138,58.2199066 138.222827,58 138.497699,58 L142.502301,58 C142.785156,58 143,58.2259549 143,58.5046844 L143,59.4953156 C143,59.785965 142.778207,60 142.504611,60 L140,60 L140,70 Z M148.676373,60 L145.504922,60 C145.226889,60 145.001499,59.785965 145.001499,59.4953156 L145.001499,58.5046844 C145.001499,58.2259549 145.234402,58 145.504922,58 L151.498076,58 C151.636892,58 151.762584,58.053354 151.853654,58.1429589 C151.945181,58.2426866 152.001499,58.3683666 152.001499,58.5034227 L152.001499,64.4965773 C152.001499,64.77461 151.787464,65 151.496815,65 L150.506184,65 C150.227454,65 150.001499,64.7670975 150.001499,64.4965773 L150.001499,61.5033007 L144.771187,66.733613 C144.574864,66.9299359 144.264367,66.9377415 144.058847,66.7322213 L143.358365,66.0317393 C143.161273,65.8346478 143.160284,65.5160886 143.356973,65.3193994 L148.676373,60 Z" id="wd-icon-fill" fill="#000000"></path>
                    <path d="M337,114.467464 L337,109.990778 C337,109.443586 337.444946,109 337.993398,109 L340,109 L340,107.495389 C340,107.221793 340.214035,107 340.504684,107 L341.495316,107 C341.774045,107 342,107.215753 342,107.495389 L342,109 L350,109 L350,107.495389 C350,107.221793 350.214035,107 350.504684,107 L351.495316,107 C351.774045,107 352,107.215753 352,107.495389 L352,109 L354.006602,109 C354.555241,109 355,109.450975 355,109.990778 L355,114.467464 L355,125.065072 C355,125.535186 354.632063,125.924258 354.146449,125.990163 C354.100756,125.996647 354.054067,126 354.006602,126 L337.993398,126 C337.933252,126 337.874355,125.994666 337.817155,125.984434 C337.352187,125.904241 337,125.523716 337,125.065072 L337,114.467464 Z M339,115 L339,124 L353,124 L353,115 L339,115 Z M341.490479,121 C341.219595,121 341,120.784943 341,120.509521 L341,117.490479 C341,117.219595 341.215057,117 341.490479,117 L344.509521,117 C344.780405,117 345,117.215057 345,117.490479 L345,120.509521 C345,120.780405 344.784943,121 344.509521,121 L341.490479,121 Z M339,111 L339,113 L353,113 L353,111 L339,111 Z" id="wd-icon-fill" fill="#000000"></path>
                    <path d="M83.8542149,115.619882 C83.5845754,115.619882 83.3509532,115.817536 83.2919425,116.095653 L81.5687047,124.212887 C81.5479011,124.310892 81.5103279,124.311805 81.4852023,124.214958 L79.3754562,116.068183 C79.3068794,115.803466 79.0792504,115.619882 78.8195805,115.619882 L77.2224318,115.619882 C76.9627619,115.619882 76.7351906,115.803466 76.6666137,116.068183 L74.5568677,124.214958 C74.531742,124.311805 74.4941688,124.310892 74.4733653,124.212887 L72.7501275,116.095653 C72.6910592,115.817536 72.4574946,115.619882 72.1877974,115.619882 L71.0844596,115.619882 C70.8185659,115.619882 70.6253982,115.887096 70.6952428,116.15833 L73.1156593,125.550968 C73.183948,125.81605 73.4116922,126 73.6716502,126 L75.4487122,126 C75.7088432,126 75.9367603,125.815746 76.0048761,125.550359 L78.021035,117.695528 L80.0371362,125.550359 C80.105252,125.815746 80.3331691,126 80.5933577,126 L82.3703621,126 C82.6303201,126 82.858122,125.81605 82.9264107,125.550968 L85.3467695,116.15833 C85.4166717,115.887096 85.2235041,115.619882 84.9575527,115.619882 L83.8542149,115.619882 Z" id="wd-icon-fill" fill="#000000"></path>
                    <path d="M77.999972,107 C74.5788159,107 71.4776047,108.940273 70.0993632,111.943086 C69.8677542,112.447569 70.0539924,113.05363 70.5233643,113.322782 C70.7592811,113.458119 71.0302748,113.484671 71.2861077,113.397748 C71.5407098,113.311176 71.7438432,113.124317 71.8581372,112.871577 C72.9205177,110.521305 75.3313774,109.002696 77.999972,109.002696 C80.6686226,109.002696 83.0794264,110.521305 84.1418628,112.871577 C84.2561009,113.124317 84.4592343,113.311176 84.7138923,113.397748 C84.9696693,113.484671 85.240607,113.458178 85.4766357,113.322782 C85.9460076,113.05363 86.1322458,112.447569 85.9006368,111.943086 C84.5223394,108.940273 81.4211841,107 77.999972,107 Z" id="wd-icon-accent" fill="#000000"></path>
                </g>
            </g>
        </g>
    </g>
</svg>