<svg xmlns="http://www.w3.org/2000/svg" width="92" height="92" class="wd-applet wd-applet-project-tasks" focusable="false" role="presentation" viewBox="0 0 92 92"><g fill="none" fill-rule="evenodd" class="wd-icon-container"><g fill="#0B77E3" fill-opacity=".2" class="animate-flood"><path d="M46 82c19.882 0 36-16.118 36-36S65.882 10 46 10 10 26.118 10 46s16.118 36 36 36z" class="color-400-alpha-20"></path></g><g class="animate-shrink"><path fill="#005CB9" fill-rule="nonzero" d="M16 15a3 3 0 0 1 2.996-3h54.008A2.996 2.996 0 0 1 76 15v65a3 3 0 0 1-2.996 3H18.996A2.996 2.996 0 0 1 16 80V15z" class="color-500"></path><path fill="#40A0FF" d="M18 15a1 1 0 0 1 .996-1h54.008c.55 0 .996.446.996 1v65a1 1 0 0 1-.996 1H18.996A.996.996 0 0 1 18 80V15zM21 20V76a2 2 0 0 0 2 2h44.996A3.006 3.006 0 0 0 71 74.999V20A2.999 2.999 0 0 0 67.996 17H24.004A3.006 3.006 0 0 0 21 20.001z" class="color-300"></path><path fill="#FFF" d="M23 20.001c0-.553.455-1.001 1.004-1.001h43.992A.999.999 0 0 1 69 20.001V75c0 .553-.455 1.001-1.004 1.001H23V20.001z" class="color-100"></path><path fill="#40A0FF" d="M41 27.999a1 1 0 0 1 .995-.999h17.01c.55 0 .995.443.995.999v1.002a1 1 0 0 1-.995.999h-17.01a.994.994 0 0 1-.995-.999v-1.002zm0 5A1 1 0 0 1 42 32h22c.552 0 1 .443 1 .999v1.002A1 1 0 0 1 64 35H42c-.552 0-1-.443-1-.999v-1.002zm0 11a1 1 0 0 1 .995-.999h17.01c.55 0 .995.443.995.999v1.002a1 1 0 0 1-.995.999h-17.01a.994.994 0 0 1-.995-.999v-1.002zm0 5A1 1 0 0 1 42 48h22c.552 0 1 .443 1 .999v1.002A1 1 0 0 1 64 51H42c-.552 0-1-.443-1-.999v-1.002zm0 11a1 1 0 0 1 .995-.999h17.01c.55 0 .995.443.995.999v1.002a1 1 0 0 1-.995.999h-17.01a.994.994 0 0 1-.995-.999v-1.002zm0 5A1 1 0 0 1 42 64h22c.552 0 1 .443 1 .999v1.002A1 1 0 0 1 64 67H42c-.552 0-1-.443-1-.999v-1.002z" class="color-300"></path><path fill="#A6D2FF" d="M32 50a3 3 0 1 1 0-6 3 3 0 0 1 0 6zm0 16a3 3 0 1 1 0-6 3 3 0 0 1 0 6z" class="color-200"></path><path fill="#005CB9" fill-rule="nonzero" d="M32 52a5 5 0 1 1 0-10 5 5 0 0 1 0 10zm0 16a5 5 0 1 1 0-10 5 5 0 0 1 0 10zm-.494-33.467a1.01 1.01 0 0 1-.23-.12l-2.457-1.72a.997.997 0 0 1-.245-1.393.997.997 0 0 1 1.392-.246l1.668 1.168 3.448-4.924a.996.996 0 0 1 1.391-.244c.452.317.563.94.247 1.39l-4.018 5.739a.996.996 0 0 1-1.196.35zM32 50a3 3 0 1 0 0-6 3 3 0 0 0 0 6zm0 16a3 3 0 1 0 0-6 3 3 0 0 0 0 6zM40 10h-6.5c-3.039 0-5.5 2.462-5.5 5.5V19a2 2 0 0 0 2 2h32a2 2 0 0 0 2-2v-3.5c0-3.035-2.464-5.5-5.5-5.5H52v-.004a6 6 0 0 0-12 0V10z" class="color-500"></path><path fill="#A6D2FF" d="M42 12V9.996a4 4 0 0 1 8 0V12h8.5c1.933 0 3.5 1.57 3.5 3.5V19H30v-3.5c0-1.933 1.565-3.5 3.5-3.5H42zm4 0a2 2 0 1 0 0-4 2 2 0 0 0 0 4z" class="color-200"></path></g><g class="animate-float-rotate-left"><path fill="#A6D2FF" d="M49.624 73.298l7.752-3.26 1.589-1.703-5.042-4.701-1.589 1.703z" class="color-200"></path><path fill="#005CB9" d="M49.625 73.295l3.66-1.534-2.392-2.187z" class="color-400"></path><path fill="#A6D2FF" d="M80.627 37.142l2.194 2.046a2 2 0 0 1 .115 2.808L57.437 70.028l-.136-2.18-2.369-.156-.33-2.361-2.284-.077L77.783 37.26a2 2 0 0 1 2.844-.117z" class="color-200"></path><path fill="#005CB9" fill-rule="nonzero" d="M81.457 40.65l-2.194-2.045L56.398 63.74l.29 2.062 1.782.118 22.987-25.27zm-.83-3.508l2.194 2.046a2 2 0 0 1 .115 2.808L57.437 70.028l-.136-2.18-2.369-.156-.33-2.361-2.284-.077L77.783 37.26a2 2 0 0 1 2.844-.117z" class="color-500"></path></g></g></svg>