<svg xmlns="http://www.w3.org/2000/svg" width="92" height="92" class="wd-applet wd-applet-projects" focusable="false" role="presentation" viewBox="0 0 92 92"><g fill="none" fill-rule="evenodd" class="wd-icon-container"><g fill="#0B77E3" fill-opacity=".2" class="animate-flood"><path d="M46 82c19.882 0 36-16.118 36-36S65.882 10 46 10 10 26.118 10 46s16.118 36 36 36z" class="color-400-alpha-20"></path></g><g class="animate-shrink"><path fill="#005CB9" fill-rule="nonzero" d="M16 15a3 3 0 0 1 2.996-3h54.008A2.996 2.996 0 0 1 76 15v65a3 3 0 0 1-2.996 3H18.996A2.996 2.996 0 0 1 16 80V15z" class="color-500"></path><path fill="#40A0FF" d="M18 15a1 1 0 0 1 .996-1h54.008c.55 0 .996.446.996 1v65a1 1 0 0 1-.996 1H18.996A.996.996 0 0 1 18 80V15zM21 20V76a2 2 0 0 0 2 2h44.996A3.006 3.006 0 0 0 71 74.999V20A2.999 2.999 0 0 0 67.996 17H24.004A3.006 3.006 0 0 0 21 20.001z" class="color-300"></path><path fill="#FFF" d="M23 20.001c0-.553.455-1.001 1.004-1.001h43.992A.999.999 0 0 1 69 20.001V75c0 .553-.455 1.001-1.004 1.001H23V20.001z" class="color-100"></path><path fill="#40A0FF" d="M41 27.999a1 1 0 0 1 .995-.999h17.01c.55 0 .995.443.995.999v1.002a1 1 0 0 1-.995.999h-17.01a.994.994 0 0 1-.995-.999v-1.002zm0 5A1 1 0 0 1 42 32h22c.552 0 1 .443 1 .999v1.002A1 1 0 0 1 64 35H42c-.552 0-1-.443-1-.999v-1.002zm0 11a1 1 0 0 1 .995-.999h17.01c.55 0 .995.443.995.999v1.002a1 1 0 0 1-.995.999h-17.01a.994.994 0 0 1-.995-.999v-1.002zm0 5A1 1 0 0 1 42 48h22c.552 0 1 .443 1 .999v1.002A1 1 0 0 1 64 51H42c-.552 0-1-.443-1-.999v-1.002zm0 11a1 1 0 0 1 .995-.999h17.01c.55 0 .995.443.995.999v1.002a1 1 0 0 1-.995.999h-17.01a.994.994 0 0 1-.995-.999v-1.002zm0 5A1 1 0 0 1 42 64h22c.552 0 1 .443 1 .999v1.002A1 1 0 0 1 64 67H42c-.552 0-1-.443-1-.999v-1.002z" class="color-300"></path><path fill="#005CB9" fill-rule="nonzero" d="M32 52a5 5 0 1 1 0-10 5 5 0 0 1 0 10zm0 16a5 5 0 1 1 0-10 5 5 0 0 1 0 10zm-.494-33.467a1.01 1.01 0 0 1-.23-.12l-2.457-1.72a.997.997 0 0 1-.245-1.393.997.997 0 0 1 1.392-.246l1.668 1.168 3.448-4.924a.996.996 0 0 1 1.391-.244c.452.317.563.94.247 1.39l-4.018 5.739a.996.996 0 0 1-1.196.35z" class="color-500"></path><path fill="#A6D2FF" d="M32 50a3 3 0 1 1 0-6 3 3 0 0 1 0 6zm0 16a3 3 0 1 1 0-6 3 3 0 0 1 0 6z" class="color-200"></path><path fill="#005CB9" fill-rule="nonzero" d="M40 10h-6.5c-3.039 0-5.5 2.462-5.5 5.5V19a2 2 0 0 0 2 2h32a2 2 0 0 0 2-2v-3.5c0-3.035-2.464-5.5-5.5-5.5H52v-.004a6 6 0 0 0-12 0V10z" class="color-500"></path><path fill="#A6D2FF" d="M42 12V9.996a4 4 0 0 1 8 0V12h8.5c1.933 0 3.5 1.57 3.5 3.5V19H30v-3.5c0-1.933 1.565-3.5 3.5-3.5H42zm4 0a2 2 0 1 0 0-4 2 2 0 0 0 0 4z" class="color-200"></path><path fill="#000" fill-rule="nonzero" d="M76 53.55v24.9A18.013 18.013 0 0 1 68.931 83H57.069C50.042 80.549 45 73.863 45 66c0-9.941 8.059-18 18-18 5.11 0 9.724 2.13 13 5.55z" class="color-shadow" opacity=".1"></path></g><g class="animate-spin"><path fill="#005CB9" fill-rule="nonzero" d="M65 83.943c8.805 0 15.943-7.138 15.943-15.943S73.805 52.057 65 52.057 49.057 59.195 49.057 68 56.195 83.943 65 83.943zM65 86c-9.941 0-18-8.059-18-18s8.059-18 18-18 18 8.059 18 18-8.059 18-18 18z" class="color-500"></path><path fill="#40A0FF" fill-rule="nonzero" d="M65 84c-8.837 0-16-7.163-16-16s7.163-16 16-16 16 7.163 16 16-7.163 16-16 16z" class="color-300"></path><path fill="#005CB9" fill-rule="nonzero" d="M65 78.92c6.03 0 10.92-4.89 10.92-10.92S71.03 57.08 65 57.08 54.08 61.97 54.08 68 58.97 78.92 65 78.92zM65 81c-7.18 0-13-5.82-13-13s5.82-13 13-13 13 5.82 13 13-5.82 13-13 13z" class="color-500"></path><path fill="#FFF" d="M65 79c6.075 0 11-4.925 11-11s-4.925-11-11-11-11 4.925-11 11 4.925 11 11 11z" class="color-100"></path><path fill="#005CB9" fill-rule="nonzero" d="M65 71a3 3 0 1 1 0-6 3 3 0 0 1 0 6zm-.022-2a1 1 0 1 0 0-2 1 1 0 0 0 0 2z" class="color-500"></path><path fill="#005CB9" fill-rule="nonzero" d="M67.566 67.427a1 1 0 0 1-1.533-1.285l4.01-4.784a1 1 0 1 1 1.532 1.284l-4.009 4.785zm-3.975-.658a.77.77 0 0 1-.771 1.332l-4.206-2.435a.77.77 0 1 1 .772-1.332l4.205 2.435z" class="color-500"></path></g></g></svg>