<svg xmlns="http://www.w3.org/2000/svg" width="92" height="92" class="wd-applet wd-applet-custom-dashboards-talent-management" focusable="false" role="presentation" viewBox="0 0 92 92"><g fill="none" fill-rule="evenodd" class="wd-icon-container"><g fill="#0B77E3" fill-opacity=".2" class="animate-flood"><circle cx="36" cy="36" r="36" class="color-400-alpha-20" transform="translate(10 10)"></circle></g><path fill="#40A0FF" d="M65.226 65.749l3.36 12.542a1.002 1.002 0 0 1-.705 1.232 1.001 1.001 0 0 1-1.226-.714l-3.361-12.543a1.002 1.002 0 0 1 .705-1.232 1.001 1.001 0 0 1 1.227.715zm-36.83 0c.144-.538.69-.859 1.226-.715.534.143.85.693.706 1.232L26.967 78.81c-.144.537-.69.858-1.227.714a1.002 1.002 0 0 1-.705-1.232l3.36-12.542z" class="color-300"></path><path fill="#005CB9" fill-rule="nonzero" d="M67.158 65.231l3.36 12.543a3.002 3.002 0 0 1-2.12 3.681 3.001 3.001 0 0 1-3.675-2.128l-3.361-12.543a3.002 3.002 0 0 1 2.12-3.681 3.001 3.001 0 0 1 3.676 2.128zM30.14 63.103a3.002 3.002 0 0 1 2.12 3.681l-3.361 12.543a3.001 3.001 0 0 1-3.676 2.128 3.002 3.002 0 0 1-2.12-3.681l3.36-12.543a3.001 3.001 0 0 1 3.677-2.128zm35.086 2.646a1.001 1.001 0 0 0-1.227-.715c-.533.143-.85.693-.705 1.232l3.36 12.543c.145.537.69.858 1.227.714.534-.143.85-.692.705-1.232l-3.36-12.542zm-36.83 0L25.035 78.29c-.145.54.172 1.09.705 1.232a1.001 1.001 0 0 0 1.227-.714l3.36-12.543a1.002 1.002 0 0 0-.705-1.232 1.001 1.001 0 0 0-1.226.715z" class="color-500"></path><path fill="#000" d="M26 71h4v3h-4v-3zm38 0h4v3h-4v-3z" class="color-shadow" opacity=".1"></path><rect width="64" height="50" x="14" y="19" fill="#FFF" class="color-100" rx="1"></rect><path fill="#005CB9" fill-rule="nonzero" d="M12 19.999A2.997 2.997 0 0 1 15.005 17h61.99A3.002 3.002 0 0 1 80 19.999V68A2.997 2.997 0 0 1 76.995 71h-61.99A3.002 3.002 0 0 1 12 68.001V20zm2 0V68c0 .551.45.999 1.005.999h61.99A.997.997 0 0 0 78 68.001V20c0-.551-.45-.999-1.005-.999h-61.99a.997.997 0 0 0-1.005.999z" class="color-500"></path><rect width="36" height="4" x="28" y="16" fill="#40A0FF" class="color-300" rx="1"></rect><path fill="#005CB9" fill-rule="nonzero" d="M26 17.01A3.01 3.01 0 0 1 29 14h34a3 3 0 0 1 3 3.01v1.98A3.01 3.01 0 0 1 63 22H29a3 3 0 0 1-3-3.01v-1.98zm2 0v1.98A1 1 0 0 0 29 20h34c.545 0 1-.452 1-1.01v-1.98A1 1 0 0 0 63 16H29c-.545 0-1 .452-1 1.01z" class="color-500"></path><g class="animate-shrink"><path fill="#40A0FF" d="M56 32.999c0-.552.45-.999 1.007-.999h11.986a1 1 0 0 1 1.007.999v1.002c0 .552-.45.999-1.007.999H57.007A1 1 0 0 1 56 34.001v-1.002zm0 5c0-.552.456-.999 1.002-.999h9.996a.998.998 0 0 1 1.002.999v1.002c0 .552-.456.999-1.002.999h-9.996A.998.998 0 0 1 56 39.001v-1.002zm-10 5a1 1 0 0 1 .995-.999h17.01c.55 0 .995.443.995.999v1.002a1 1 0 0 1-.995.999h-17.01a.994.994 0 0 1-.995-.999v-1.002zm10 11c0-.552.456-.999 1.002-.999h9.996a.998.998 0 0 1 1.002.999v1.002c0 .552-.456.999-1.002.999h-9.996A.998.998 0 0 1 56 55.001v-1.002zm-10 5c0-.552.44-.999 1.002-.999h19.996a.998.998 0 0 1 1.002.999v1.002c0 .552-.44.999-1.002.999H47.002A.998.998 0 0 1 46 60.001v-1.002zm10-10A.994.994 0 0 1 57.003 48h4.994a.998.998 0 0 1 1.003.999v1.002a.994.994 0 0 1-1.003.999h-4.994A.998.998 0 0 1 56 50.001v-1.002zM48 50h4v4h-4zM48 34h4v4h-4z" class="color-300"></path><path fill="#005CB9" fill-rule="nonzero" d="M48 48h4a2 2 0 0 1 2 2v4a2 2 0 0 1-2 2h-4a2 2 0 0 1-2-2v-4a2 2 0 0 1 2-2zm0 2v4h4v-4h-4zM48 32h4a2 2 0 0 1 2 2v4a2 2 0 0 1-2 2h-4a2 2 0 0 1-2-2v-4a2 2 0 0 1 2-2zm0 2v4h4v-4h-4z" class="color-500"></path></g><g class="animate-grow"><rect width="18" height="14" x="2" y="2" fill="#A6D2FF" class="color-200" rx="1" transform="translate(20 32)"></rect><path fill="#40A0FF" d="M6 14.01c0-.558.456-1.01.995-1.01h8.01c.55 0 .995.443.995 1.01v1.98c0 .558-.456 1.01-.995 1.01h-8.01A.997.997 0 0 1 6 15.99v-1.98z" class="color-300" transform="translate(20 32)"></path><path fill="#FFF" fill-rule="nonzero" d="M9 6.5v3c0 .826.895 1.5 2 1.5 1.112 0 2-.672 2-1.5v-3c0-.826-.895-1.5-2-1.5-1.112 0-2 .672-2 1.5z" class="color-100" transform="translate(20 32)"></path><path fill="#005CB9" fill-rule="nonzero" d="M7.447 11.027A2.93 2.93 0 0 1 7 9.5v-3C7 4.566 9.062 3 11 3c1.933 0 4 1.57 4 3.5v3c0 .546-.164 1.064-.444 1.526C16.51 11.198 18 12.886 18 15v1h.993c.557 0 1.007-.447 1.007-.999V3C20 2.447 19.55 2 18.993 2H3.007C2.45 2 2 2.447 2 2.999V15c0 .552.45.999 1.007.999H4v-1c0-1.975 1.516-3.786 3.447-3.973zM0 2.999C0 1.339 1.35 0 3.007 0h15.986A3.003 3.003 0 0 1 22 2.999V15C22 16.661 20.65 18 18.993 18H3.007A3.003 3.003 0 0 1 0 15.001V3zM6 15v1h10v-1c0-.989-1.025-1.989-2-1.989H8c-.98 0-2 1.008-2 1.989zm3-8.5v3.023c0 .826 1.172 1.488 2 1.488.834 0 2-.659 2-1.488V6.5c0-.826-1.172-1.5-2-1.5-.834 0-2 .672-2 1.5z" class="color-500" transform="translate(20 32)"></path></g></g></svg>