<svg xmlns="http://www.w3.org/2000/svg" width="92" height="92" class="wd-applet wd-applet-my-projects" focusable="false" role="presentation" viewBox="0 0 92 92"><g fill="none" fill-rule="evenodd" class="wd-icon-container"><g fill="#0B77E3" fill-opacity=".2" class="animate-flood"><circle cx="36" cy="36" r="36" class="color-400-alpha-20" transform="translate(10 10)"></circle></g><g class="animate-shrink"><path fill="#FFF" d="M26 25.507C26 18.047 32.043 12 39.5 12 46.956 12 53 18.046 53 25.507v8.986C53 41.953 46.957 48 39.5 48 32.044 48 26 41.954 26 34.493v-8.986z" class="color-100"></path><path fill="#A6D2FF" d="M15 61c0-6.075 4.923-11 10.997-11h27.006C59.077 50 64 54.924 64 61v11H15V61z" class="color-200"></path><path fill="#005CB9" fill-rule="nonzero" d="M13 61c0-7.18 5.818-13 12.997-13h27.006C60.182 48 66 53.82 66 61v10.997A2.002 2.002 0 0 1 64.003 74H14.997A1.998 1.998 0 0 1 13 71.997V61zm2 0v11h49V61c0-6.076-4.923-11-10.997-11H25.997C19.923 50 15 54.925 15 61zm9-35.493C24 16.943 30.938 10 39.5 10 48.061 10 55 16.942 55 25.507v8.986C55 43.057 48.062 50 39.5 50 30.939 50 24 43.058 24 34.493v-8.986zm2 0v8.986C26 41.954 32.044 48 39.5 48 46.957 48 53 41.952 53 34.493v-8.986C53 18.046 46.956 12 39.5 12 32.043 12 26 18.048 26 25.507z" class="color-500"></path><path fill="#000" d="M45 48h9c4.977 0 12 6.18 12 12v12a2 2 0 0 1-2 2H42V51a3 3 0 0 1 3-3z" class="color-shadow" opacity=".1"></path></g><g class="animate-grow"><path fill="#40A0FF" d="M3 7h29a2 2 0 0 1 2 2v35a2 2 0 0 1-2 2H3a2 2 0 0 1-2-2V9a2 2 0 0 1 2-2z" class="color-300" transform="translate(45 39)"></path><rect width="27" height="33" x="4" y="10" fill="#FFF" class="color-100" rx="2" transform="translate(45 39)"></rect><path fill="#005CB9" fill-rule="nonzero" d="M6 12v29h23V12H6zm0-2h23a2 2 0 0 1 2 2v29a2 2 0 0 1-2 2H6a2 2 0 0 1-2-2V12a2 2 0 0 1 2-2zM4 8a2 2 0 0 0-2 2v33a2 2 0 0 0 2 2h27a2 2 0 0 0 2-2V10a2 2 0 0 0-2-2H4zm0-2h27a4 4 0 0 1 4 4v33a4 4 0 0 1-4 4H4a4 4 0 0 1-4-4V10a4 4 0 0 1 4-4z" class="color-500" transform="translate(45 39)"></path><path fill="#A6D2FF" d="M13.027 5H11a3 3 0 0 0-3 3v5h19V8a3 3 0 0 0-3-3h-2.027a4.5 4.5 0 0 0-8.946 0z" class="color-200" transform="translate(45 39)"></path><path fill="#005CB9" fill-rule="nonzero" d="M12.207 4a5.503 5.503 0 0 1 10.586 0H24a4 4 0 0 1 4 4v4a1 1 0 0 1-1 1H8a1 1 0 0 1-1-1V8a4 4 0 0 1 4-4h1.207zM26 8a2 2 0 0 0-2-2h-2.027a1 1 0 0 1-.994-.89 3.5 3.5 0 0 0-6.958 0 1 1 0 0 1-.994.89H11a2 2 0 0 0-2 2v3h17V8zm-8.5-1a1.5 1.5 0 1 0 0-3 1.5 1.5 0 0 0 0 3zM9.698 18.761c-.568-.439-1.03-.377-1.414.02-.386.395-.432 1.045.018 1.413l2.326 1.778 4.13-4.32a1 1 0 1 0-1.516-1.304l-2.744 3.018-.8-.605z" class="color-500" transform="translate(45 39)"></path><path fill="#40A0FF" d="M11 28a2 2 0 1 1 0-4 2 2 0 0 1 0 4zm0 8a2 2 0 1 1 0-4 2 2 0 0 1 0 4zm7-20h8a1 1 0 0 1 0 2h-8a1 1 0 0 1 0-2zm0 3h8a1 1 0 0 1 0 2h-8a1 1 0 0 1 0-2zm0 5h8a1 1 0 0 1 0 2h-8a1 1 0 0 1 0-2zm0 3h6a1 1 0 0 1 0 2h-6a1 1 0 0 1 0-2zm0 5h8a1 1 0 0 1 0 2h-8a1 1 0 0 1 0-2zm0 3h4a1 1 0 0 1 0 2h-4a1 1 0 0 1 0-2z" class="color-300" transform="translate(45 39)"></path></g></g></svg>