<svg xmlns="http://www.w3.org/2000/svg" width="92" height="92" class="wd-applet wd-applet-custom-dashboards-workforce-planning" focusable="false" role="presentation" viewBox="0 0 92 92"><g fill="none" fill-rule="evenodd" class="wd-icon-container"><g fill="#0B77E3" fill-opacity=".2" class="animate-flood"><circle cx="36" cy="36" r="36" class="color-400-alpha-20" transform="translate(10 10)"></circle></g><rect width="64" height="50" x="14" y="19" fill="#FFF" class="color-100" rx="1"></rect><path fill="#40A0FF" d="M22 35v8h8v-8h-8zm-1.008-2h50.016c.273 0 .52.11.699.29a.99.99 0 0 1 .293.703v30.014a1 1 0 0 1-.992.993H20.992a.99.99 0 0 1-.992-.993V33.993c0-.27.11-.516.29-.697a.987.987 0 0 1 .702-.296zM70 35h-8v8h8v-8zm-10 0h-8v8h8v-8zm-10 0h-8v8h8v-8zm-10 0h-8v8h8v-8zM22 45v8h8v-8h-8zm48 0h-8v8h8v-8zm-10 0h-8v8h8v-8zm-10 0h-8v8h8v-8zm-10 0h-8v8h8v-8zM22 55v8h8v-8h-8zm48 0h-8v8h8v-8zm-10 0h-8v8h8v-8zm-10 0h-8v8h8v-8zm-10 0h-8v8h8v-8zM28 17.01c0-.558.455-1.01 1-1.01h34a1 1 0 0 1 1 1.01v1.98A1.01 1.01 0 0 1 63 20H29a1 1 0 0 1-1-1.01v-1.98zm34.31 53.04l4.08.034 2.2 8.207c.143.535-.544 1.829-1.591 2.11-1.048.28-2.2-1.061-2.342-1.596L62.31 70.05zM29.326 70l-2.358 8.8c-.144.538-.785 2.1-2.226 1.714-1.442-.386-1.85-1.691-1.706-2.229l2.213-8.258L29.325 70zM36 27.999c0-.552.455-.999.992-.999h18.016c.548 0 .992.443.992.999v1.002c0 .552-.455.999-.992.999H36.992a.992.992 0 0 1-.992-.999v-1.002zm7 8.992c0-.547.451-.991.99-.991h4.02c.546 0 .99.451.99.99v4.02c0 .546-.451.99-.99.99h-4.02a.996.996 0 0 1-.99-.99v-4.02z" class="color-300"></path><path fill="#005CB9" fill-rule="nonzero" d="M26 17a3.01 3.01 0 0 1 3-3h34a3 3 0 0 1 3 3h10.995A3.002 3.002 0 0 1 80 19.999V68A2.997 2.997 0 0 1 76.995 71h-9.326l1.816 6.778a3.002 3.002 0 0 1-2.12 3.682 3.001 3.001 0 0 1-3.675-2.129L61.457 71H30.13l-2.231 8.327a3.001 3.001 0 0 1-3.676 2.128 3.002 3.002 0 0 1-2.12-3.681L23.918 71h-8.913A3.002 3.002 0 0 1 12 68.001V20A2.997 2.997 0 0 1 15.005 17H26zm0 2H15.005a.997.997 0 0 0-1.005.999V68c0 .551.45.999 1.005.999h56.113c.55-.002.882 0 .882 0h4.995A.997.997 0 0 0 78 68.001V20c0-.551-.45-.999-1.005-.999H66a3.01 3.01 0 0 1-3 3H29a3 3 0 0 1-3-3zm37.53 52.007l2.092 7.806c.144.538.689.859 1.226.715.534-.143.85-.693.705-1.232L65.6 71.004l-2.07.003zm-37.545.006l-1.95 7.278c-.145.54.172 1.09.705 1.232a1.001 1.001 0 0 0 1.227-.714l2.09-7.804-2.072.008zM28 17.01v1.982A1 1 0 0 0 29 20h34c.545 0 1-.452 1-1.01v-1.98A1 1 0 0 0 63 16H29c-.545 0-1 .452-1 1.01zm5 39.982c0-.547.451-.991.99-.991h4.02c.546 0 .99.451.99.99v4.02c0 .546-.451.99-.99.99h-4.02a.996.996 0 0 1-.99-.99v-4.02zM35 60h2v-2h-2v2zm8-3.01c0-.546.451-.99.99-.99h4.02c.546 0 .99.451.99.99v4.02c0 .546-.451.99-.99.99h-4.02a.996.996 0 0 1-.99-.99v-4.02zm-10-10c0-.546.451-.99.99-.99h4.02c.546 0 .99.451.99.99v4.02c0 .546-.451.99-.99.99h-4.02a.996.996 0 0 1-.99-.99v-4.02zM35 50h2v-2h-2v2zm10 10h2v-2h-2v2zm18-13.01c0-.546.451-.99.99-.99h4.02c.546 0 .99.451.99.99v4.02c0 .546-.451.99-.99.99h-4.02a.996.996 0 0 1-.99-.99v-4.02zM65 50h2v-2h-2v2zM43 36.99c0-.546.451-.99.99-.99h4.02c.546 0 .99.451.99.99v4.02c0 .546-.451.99-.99.99h-4.02a.996.996 0 0 1-.99-.99v-4.02zM45 40h2v-2h-2v2z" class="color-500"></path><g class="animate-grow"><path fill="#40A0FF" d="M33 36.99c0-.546.451-.99.99-.99h4.02c.546 0 .99.451.99.99v4.02c0 .546-.451.99-.99.99h-4.02a.996.996 0 0 1-.99-.99v-4.02z" class="color-300"></path><path fill="#005CB9" fill-rule="nonzero" d="M35 40h2v-2h-2v2zm-2-3.01c0-.546.451-.99.99-.99h4.02c.546 0 .99.451.99.99v4.02c0 .546-.451.99-.99.99h-4.02a.996.996 0 0 1-.99-.99v-4.02z" class="color-500"></path></g><g fill="#005CB9" fill-rule="nonzero" class="animate-shrink"><path d="M25 50h2v-2h-2v2zm-2-3.01c0-.546.451-.99.99-.99h4.02c.546 0 .99.451.99.99v4.02c0 .546-.451.99-.99.99h-4.02a.996.996 0 0 1-.99-.99v-4.02z" class="color-500"></path></g><g fill="#005CB9" fill-rule="nonzero" class="animate-shrink"><path d="M55 60h2v-2h-2v2zm-2-3.01c0-.546.451-.99.99-.99h4.02c.546 0 .99.451.99.99v4.02c0 .546-.451.99-.99.99h-4.02a.996.996 0 0 1-.99-.99v-4.02z" class="color-500"></path></g><g class="animate-grow"><path fill="#40A0FF" d="M63 36.99c0-.546.451-.99.99-.99h4.02c.546 0 .99.451.99.99v4.02c0 .546-.451.99-.99.99h-4.02a.996.996 0 0 1-.99-.99v-4.02z" class="color-300"></path><path fill="#005CB9" fill-rule="nonzero" d="M65 40h2v-2h-2v2zm-2-3.01c0-.546.451-.99.99-.99h4.02c.546 0 .99.451.99.99v4.02c0 .546-.451.99-.99.99h-4.02a.996.996 0 0 1-.99-.99v-4.02z" class="color-500"></path></g><g class="animate-grow"><path fill="#40A0FF" d="M43 46.99c0-.546.451-.99.99-.99h4.02c.546 0 .99.451.99.99v4.02c0 .546-.451.99-.99.99h-4.02a.996.996 0 0 1-.99-.99v-4.02z" class="color-300"></path><path fill="#005CB9" fill-rule="nonzero" d="M45 50h2v-2h-2v2zm-2-3.01c0-.546.451-.99.99-.99h4.02c.546 0 .99.451.99.99v4.02c0 .546-.451.99-.99.99h-4.02a.996.996 0 0 1-.99-.99v-4.02z" class="color-500"></path></g></g></svg>