<svg xmlns="http://www.w3.org/2000/svg" width="24" height="24" class="wd-icon-cart wd-icon" focusable="false" role="presentation" viewBox="0 0 24 24"><g fill-rule="evenodd" class="wd-icon-container"><path d="M9 8.5h9l-.5 3H10z" class="wd-icon-background" fill="transparent"></path><path d="M17 19a1 1 0 1 1 2 0 1 1 0 0 1-2 0zm-9 0a1 1 0 1 1 2 0 1 1 0 0 1-2 0zm2.01-2a.707.707 0 0 1-.652-.485L6 5H4.505A.497.497 0 0 1 4 4.495v-.99C4 3.226 4.23 3 4.501 3H7c.276 0 .573.216.657.469L8.5 6h11.006c.273 0 .463.217.422.503l-.856 5.994a.603.603 0 0 1-.578.503H10.5l.5 2h7.008c.272 0 .492.214.492.505v.99a.504.504 0 0 1-.51.505h-7.98zM9 8l1 3h7.5l.5-3H9z" class="wd-icon-fill" fill="#7b858f"></path></g></svg>